<?xml version="1.0" encoding="utf-8"?>
<!-- Generator: Adobe Illustrator 19.1.0, SVG Export Plug-In . SVG Version: 6.00 Build 0)  -->
<svg version="1.1" id="Calque_1" xmlns="http://www.w3.org/2000/svg" xmlns:xlink="http://www.w3.org/1999/xlink" x="0px" y="0px"
	 viewBox="0 0 841.9 595.3" style="enable-background:new 0 0 841.9 595.3;" xml:space="preserve">
<style type="text/css">
	.st0{clip-path:url(#SVGID_2_);fill:none;stroke:#D6DBF0;stroke-width:2;stroke-linecap:square;stroke-miterlimit:10;}
	.st1{clip-path:url(#SVGID_4_);}
	.st2{clip-path:url(#SVGID_6_);enable-background:new    ;}
	.st3{clip-path:url(#SVGID_8_);}
	.st4{clip-path:url(#SVGID_10_);}
	.st5{opacity:0.5;clip-path:url(#SVGID_12_);fill:#EA5F8A;}
</style>
<g>
	<defs>
		<rect id="SVGID_1_" x="169" y="143.3" width="480" height="261"/>
	</defs>
	<clipPath id="SVGID_2_">
		<use xlink:href="#SVGID_1_"  style="overflow:visible;"/>
	</clipPath>
	<line class="st0" x1="159.9" y1="194.3" x2="657" y2="194.3"/>
	<line class="st0" x1="220" y1="127.8" x2="220" y2="420.1"/>
</g>
<g>
	<defs>
		<rect id="SVGID_3_" x="169" y="143.3" width="480" height="261"/>
	</defs>
	<clipPath id="SVGID_4_">
		<use xlink:href="#SVGID_3_"  style="overflow:visible;"/>
	</clipPath>
	<g class="st1">
		<defs>
			<rect id="SVGID_5_" x="169" y="143.3" width="480" height="261"/>
		</defs>
		<clipPath id="SVGID_6_">
			<use xlink:href="#SVGID_5_"  style="overflow:visible;"/>
		</clipPath>
		<g class="st2">
			<g>
				<defs>
					<rect id="SVGID_7_" x="522" y="240.3" width="142" height="205"/>
				</defs>
				<clipPath id="SVGID_8_">
					<use xlink:href="#SVGID_7_"  style="overflow:visible;"/>
				</clipPath>
				<g class="st3">
					<defs>
						<path id="SVGID_9_" d="M587.5,367.7l2.4-5.2c25.7,4.4,51.7-9.5,63-33.1c10.1-22.4,5.6-48.8-11.6-66.3
							c-17.2-17.4-44.6-22.1-66.6-11.6c-22.2,10.6-35.9,34.7-33.3,59.3c1.6,15.2,9.2,28.8,20.4,38.4l-2.5,5.3
							c-1.1,2.4-0.5,5.3,1.4,7l-4.1,8.8l-2.1-1c-1.8-0.8-3.8,0-4.7,1.7c-4.6,9.1-9.2,18.1-13.8,27.2l-8.7,17.1
							c-1.5,3-3.9,6.5-4.3,10c-0.7,7.6,6.5,10,12,12.5c4.6,2.1,10.7,6.5,16,5.8c5.3-0.7,7.2-4.9,9-9.2c2.4-5.5,4.7-11.1,7.1-16.6
							c4.6-10.8,9.2-21.5,13.8-32.3c0.3-0.7,0.3-1.3,0.3-1.9c0-0.1,0-0.1,0-0.2c0,0,0-0.1,0-0.1c-0.1-1-0.7-1.9-1.9-2.5l-2.8-1.3
							l4-8.6C583.2,371.7,586.2,370.4,587.5,367.7z M562.9,373.4l7.2,3.4l4-8.5l-7.2-3.4L562.9,373.4z M549.7,317.7
							c-5.6-21,3.2-43.9,21.3-56c18-12,42.3-11.5,59.6,1.5c19.5,14.7,25.9,41.1,15.9,63.3c-9.3,19.4-29.8,31.7-51.3,29.7
							C573.6,354.2,555.3,338.7,549.7,317.7z M564.4,406.4c-2.5,5.7-4.9,11.5-7.4,17.2c-1.5,3.5-2.7,7.6-4.7,10.9
							c-2.4,4.1-7,0.5-10.2-1c-2.9-1.3-13-4.1-11.9-8.4c0.7-2.6,2.7-5.3,3.9-7.7c2.7-5.4,5.5-10.8,8.2-16.2
							c4.1-8,8.1-16.1,12.2-24.1l18.6,8.7C570.3,392.7,567.3,399.6,564.4,406.4z"/>
					</defs>
					<clipPath id="SVGID_10_">
						<use xlink:href="#SVGID_9_"  style="overflow:visible;"/>
					</clipPath>
					<g class="st4">
						<defs>
							<rect id="SVGID_11_" x="169" y="143.3" width="480" height="261"/>
						</defs>
						<clipPath id="SVGID_12_">
							<use xlink:href="#SVGID_11_"  style="overflow:visible;"/>
						</clipPath>
						
							<rect x="517.2" y="236.8" transform="matrix(-0.9063 -0.4226 0.4226 -0.9063 961.2344 903.8348)" class="st5" width="127.2" height="217.1"/>
					</g>
				</g>
			</g>
		</g>
	</g>
</g>
</svg>
